<?xml version="1.0" encoding="UTF-8" standalone="no"?>
<!-- Generator: Blender, SVG Export for Grease Pencil - v1.0 -->

<svg
   version="1.0"
   x="0px"
   y="0px"
   width="529.13385"
   height="529.13379"
   viewBox="0 0 529.13385 529.13379"
   id="svg407"
   sodipodi:docname="CenterCut.svg"
   inkscape:export-filename="CenterCut.svg"
   inkscape:export-xdpi="96"
   inkscape:export-ydpi="96"
   inkscape:version="1.2.1 (9c6d41e410, 2022-07-14)"
   xmlns:inkscape="http://www.inkscape.org/namespaces/inkscape"
   xmlns:sodipodi="http://sodipodi.sourceforge.net/DTD/sodipodi-0.dtd"
   xmlns="http://www.w3.org/2000/svg"
   xmlns:svg="http://www.w3.org/2000/svg">
  <defs
     id="defs411" />
  <sodipodi:namedview
     id="namedview409"
     pagecolor="#ffffff"
     bordercolor="#000000"
     borderopacity="0.25"
     inkscape:showpageshadow="2"
     inkscape:pageopacity="0.0"
     inkscape:pagecheckerboard="0"
     inkscape:deskcolor="#d1d1d1"
     showgrid="false"
     inkscape:zoom="1.2345865"
     inkscape:cx="323.18514"
     inkscape:cy="259.1961"
     inkscape:window-width="1920"
     inkscape:window-height="986"
     inkscape:window-x="2869"
     inkscape:window-y="-11"
     inkscape:window-maximized="1"
     inkscape:current-layer="svg407" />
  <g
     id="blender_frame_1"
     transform="matrix(0.81683373,0,0,0.81683373,-7.3512575,-7.3512575)">
    <g
       id="blender_object_GPencil.002">
      <!--Layer: Plane_002_Lines-->
      <g
         id="Plane_002_Lines">
        <polyline
           stroke="#000000"
           stroke-opacity="1"
           fill="none"
           stroke-linecap="round"
           stroke-width="2"
           points="329.678680,555.271240 329.480865,555.912781 329.414215,556.579956 329.414215,556.579956 329.481232,557.247192 329.679352,557.888794 329.679352,557.888794 330.000885,558.480103 330.000885,558.480103 330.433563,558.998413 330.433563,558.998413 330.960663,559.423828 330.960663,559.423828 331.561981,559.739929 331.561981,559.739929 332.214447,559.934570 332.214447,559.934570 332.892975,560.000244 333.571503,559.934570 334.223969,559.739929 334.223969,559.739929 334.825287,559.423828 334.825287,559.423828 335.352386,558.998413 335.352386,558.998413 335.785065,558.480103 335.785065,558.480103 336.106659,557.888794 336.106659,557.888794 336.304718,557.247192 336.371735,556.579956 336.371735,556.579956 336.305084,555.912781 336.107269,555.271240 336.107269,555.271240 335.785919,554.679993 335.785919,554.679993 335.353302,554.161804 335.353302,554.161804 334.826141,553.736572 334.826141,553.736572 334.224579,553.420532 334.224579,553.420532 333.571808,553.225952 333.571808,553.225952 332.892975,553.160278 332.892975,553.160278 332.214081,553.225952 332.214081,553.225952 331.561371,553.420532 331.561371,553.420532 330.959808,553.736572 330.959808,553.736572 330.432648,554.161804 330.432648,554.161804 330.000031,554.679993 330.000031,554.679993 329.678680,555.271240"
           id="polyline338" />
        <polyline
           stroke="#000000"
           stroke-opacity="1"
           fill="none"
           stroke-linecap="round"
           stroke-width="2"
           points="426.623810,23.903687 441.672272,28.875061 456.458649,34.578796 456.458649,34.578796 470.947479,41.001221 470.947479,41.001221 485.103607,48.126831 498.893036,55.938477 512.282593,64.417297 525.239990,73.542908 537.734009,83.293335 549.734497,93.645081 561.212646,104.573120 572.140747,116.051270 582.492432,128.051819 592.242920,140.545837 601.368530,153.503174 609.847412,166.892761 609.847412,166.892761 617.659058,180.682251 617.659058,180.682251 624.784546,194.838318 624.784546,194.838318 631.207153,209.327087 636.910889,224.113495 636.910889,224.113495 641.882080,239.161987 646.109009,254.436249 646.109009,254.436249 649.581421,269.899567 649.581421,269.899567 652.290894,285.514587 652.290894,285.514587 654.231201,301.243774 655.396729,317.049255 655.396729,317.049255 655.785889,332.892822 655.397095,348.736450 654.231201,364.541901 652.291138,380.271118 649.581665,395.886169 649.581665,395.886169 646.109131,411.349426 646.109131,411.349426 641.882080,426.623657 636.911011,441.672241 631.207153,456.458618 631.207153,456.458618 624.784546,470.947266 624.784546,470.947266 617.659180,485.103577 609.847534,498.893066 609.847534,498.893066 601.368408,512.282471 601.368408,512.282471 592.243042,525.240051 582.492554,537.734070 572.140869,549.734619 561.212769,561.212769 549.734619,572.140869 549.734619,572.140869 537.734009,582.492554 525.239868,592.242737 525.239868,592.242737 512.282715,601.368591 498.893097,609.847473 485.103607,617.659058 470.947479,624.784668 456.458649,631.207092 456.458649,631.207092 441.672211,636.910583 441.672211,636.910583 426.623810,641.882202 426.623810,641.882202 411.349457,646.109131 411.349457,646.109131 395.886139,649.581482 380.271088,652.291016 364.541901,654.231018 348.736481,655.396851 332.892853,655.785828 332.892853,655.785828 317.049225,655.396973 301.243805,654.231079 301.243805,654.231079 285.514618,652.291016 269.899567,649.581421 254.436249,646.109009 239.161957,641.882080 239.161957,641.882080 224.113434,636.910828 224.113434,636.910828 209.327057,631.206909 194.838287,624.784546 180.682159,617.658936 166.892670,609.847229 153.503082,601.368408 140.545685,592.242737 140.545685,592.242737 128.051636,582.492432 128.051636,582.492432 116.051178,572.140625 116.051178,572.140625 104.572937,561.212524 104.572937,561.212524 93.644928,549.734375 93.644928,549.734375 83.293152,537.733887 73.542786,525.239868 73.542786,525.239868 64.417145,512.282471 55.938324,498.892883 55.938324,498.892883 48.126648,485.103394 48.126648,485.103394 41.001129,470.947266 41.001129,470.947266 34.578613,456.458496 34.578613,456.458496 28.874969,441.672119 28.874969,441.672119 23.903717,426.623566 19.676758,411.349304 19.676758,411.349304 16.204193,395.886017 16.204193,395.886017 13.494965,380.270935 11.554901,364.541779 11.554901,364.541779 10.388885,348.736298 10.000000,332.892700 10.000000,332.892700 10.389038,317.049164 11.554962,301.243744 11.554962,301.243744 13.494873,285.514465 13.494873,285.514465 16.204468,269.899506 16.204468,269.899506 19.676666,254.436066 23.903717,239.161865 28.875092,224.113373 28.875092,224.113373 34.578949,209.327087 41.001312,194.838318 41.001312,194.838318 48.126892,180.682007 48.126892,180.682007 55.938568,166.892700 55.938568,166.892700 64.417328,153.502930 64.417328,153.502930 73.543060,140.545776 73.543060,140.545776 83.293488,128.051636 83.293488,128.051636 93.645203,116.051208 104.573334,104.573059 104.573334,104.573059 116.051422,93.644897 116.051422,93.644897 128.051941,83.293274 140.545929,73.542786 140.545929,73.542786 153.503326,64.417175 166.892853,55.938293 180.682343,48.126648 180.682343,48.126648 194.838531,41.001160 194.838531,41.001160 209.327240,34.578613 224.113678,28.874939 224.113678,28.874939 239.162140,23.903625 239.162140,23.903625 254.436432,19.676636 269.899689,16.204285 269.899689,16.204285 285.514740,13.494873 285.514740,13.494873 301.243927,11.554810 317.049408,10.388916 317.049408,10.388916 332.892975,10.000000 332.892975,10.000000 348.736542,10.388916 364.542023,11.554810 380.271210,13.494812 395.886261,16.204285 411.349518,19.676697 411.349518,19.676697 426.623810,23.903687"
           id="polyline340" />
        <polyline
           stroke="#000000"
           stroke-opacity="1"
           fill="none"
           stroke-linecap="round"
           stroke-width="2"
           points="337.189789,338.686401 336.900299,338.890228 336.900299,338.890228 336.601227,339.079651 336.601227,339.079651 336.293182,339.254181 336.293182,339.254181 335.976959,339.413330 335.976959,339.413330 335.653229,339.556824 335.653229,339.556824 335.322968,339.684235 335.322968,339.684235 334.986786,339.795288 334.986786,339.795288 334.645599,339.889709 334.645599,339.889709 334.300140,339.967285 334.300140,339.967285 333.951324,340.027832 333.951324,340.027832 333.599945,340.071136 333.599945,340.071136 333.246857,340.097198 333.246857,340.097198 332.892914,340.105896 332.892914,340.105896 332.539032,340.097198 332.539032,340.097198 332.185944,340.071136 332.185944,340.071136 331.834564,340.027832 331.834564,340.027832 331.485687,339.967285 331.485687,339.967285 331.140289,339.889709 331.140289,339.889709 330.799103,339.795288 330.799103,339.795288 330.462921,339.684204 330.462921,339.684204 330.132599,339.556824 330.132599,339.556824 329.808929,339.413330 329.808929,339.413330 329.492706,339.254181 329.492706,339.254181 329.184662,339.079651 329.184662,339.079651 328.885529,338.890228 328.885529,338.890228 328.596100,338.686401 328.596100,338.686401 328.316986,338.468567 328.316986,338.468567 328.048920,338.237335 328.048920,338.237335 327.792511,337.993195 327.792511,337.993195 327.548370,337.736786 327.548370,337.736786 327.317169,337.468719 327.099335,337.189636 327.099335,337.189636 326.895477,336.900146 326.895477,336.900146 326.706024,336.601044 326.706024,336.601044 326.531525,336.293030 326.531525,336.293030 326.372406,335.976776 326.372406,335.976776 326.228912,335.653107 326.101471,335.322784 325.990448,334.986633 325.990448,334.986633 325.895966,334.645416 325.895966,334.645416 325.818390,334.299988 325.757904,333.951172 325.714569,333.599792 325.688507,333.246704 325.688507,333.246704 325.679840,332.892792 325.688507,332.538849 325.688507,332.538849 325.714569,332.185760 325.714569,332.185760 325.757904,331.834412 325.757904,331.834412 325.818390,331.485596 325.818390,331.485596 325.895966,331.140137 325.895966,331.140137 325.990448,330.798920 325.990448,330.798920 326.101471,330.462738 326.101471,330.462738 326.228912,330.132446 326.228912,330.132446 326.372406,329.808777 326.372406,329.808777 326.531525,329.492554 326.531525,329.492554 326.706024,329.184509 326.706024,329.184509 326.895477,328.885406 326.895477,328.885406 327.099335,328.595947 327.099335,328.595947 327.317169,328.316864 327.317169,328.316864 327.548370,328.048737 327.792511,327.792328 328.048920,327.548218 328.048920,327.548218 328.316986,327.316986 328.316986,327.316986 328.596100,327.099182 328.596100,327.099182 328.885529,326.895294 328.885529,326.895294 329.184662,326.705902 329.184662,326.705902 329.492706,326.531403 329.808929,326.372223 329.808929,326.372223 330.132599,326.228760 330.132599,326.228760 330.462921,326.101318 330.462921,326.101318 330.799103,325.990265 330.799103,325.990265 331.140289,325.895813 331.140289,325.895813 331.485687,325.818298 331.485687,325.818298 331.834564,325.757751 331.834564,325.757751 332.185944,325.714417 332.185944,325.714417 332.539032,325.688354 332.539032,325.688354 332.892914,325.679688 332.892914,325.679688 333.246857,325.688354 333.246857,325.688354 333.599945,325.714417 333.599945,325.714417 333.951324,325.757751 333.951324,325.757751 334.300140,325.818298 334.300140,325.818298 334.645599,325.895813 334.645599,325.895813 334.986786,325.990265 334.986786,325.990265 335.322968,326.101318 335.322968,326.101318 335.653229,326.228760 335.653229,326.228760 335.976959,326.372223 335.976959,326.372223 336.293182,326.531403 336.293182,326.531403 336.601227,326.705902 336.601227,326.705902 336.900299,326.895294 336.900299,326.895294 337.189789,327.099182 337.189789,327.099182 337.468903,327.316986 337.468903,327.316986 337.736969,327.548218 337.736969,327.548218 337.993378,327.792328 337.993378,327.792328 338.237518,328.048737 338.237518,328.048737 338.468719,328.316864 338.468719,328.316864 338.686554,328.595947 338.686554,328.595947 338.890411,328.885406 338.890411,328.885406 339.079803,329.184509 339.079803,329.184509 339.254364,329.492554 339.254364,329.492554 339.413483,329.808777 339.556915,330.132446 339.556915,330.132446 339.684357,330.462769 339.684357,330.462769 339.795441,330.798920 339.795441,330.798920 339.889862,331.140137 339.889862,331.140137 339.967438,331.485596 339.967438,331.485596 340.027924,331.834412 340.027924,331.834412 340.071320,332.185760 340.071320,332.185760 340.097321,332.538849 340.097321,332.538849 340.106049,332.892792 340.097321,333.246704 340.097321,333.246704 340.071320,333.599792 340.071320,333.599792 340.027924,333.951172 340.027924,333.951172 339.967438,334.299988 339.967438,334.299988 339.889862,334.645416 339.889862,334.645416 339.795441,334.986633 339.795441,334.986633 339.684357,335.322784 339.684357,335.322784 339.556915,335.653107 339.556915,335.653107 339.413483,335.976776 339.413483,335.976776 339.254364,336.293030 339.254364,336.293030 339.079803,336.601044 339.079803,336.601044 338.890411,336.900146 338.890411,336.900146 338.686554,337.189636 338.686554,337.189636 338.468719,337.468719 338.468719,337.468719 338.237518,337.736786 337.993378,337.993195 337.736969,338.237335 337.736969,338.237335 337.468903,338.468567 337.468903,338.468567 337.189789,338.686401"
           id="polyline342" />
        <polyline
           stroke="#000000"
           stroke-opacity="1"
           fill="none"
           stroke-linecap="round"
           stroke-width="2"
           points="332.892914,112.625366 332.214020,112.559692 332.214020,112.559692 331.561310,112.365112 331.561310,112.365112 330.959808,112.049072 330.959808,112.049072 330.432587,111.623840 330.432587,111.623840 329.999969,111.105652 329.999969,111.105652 329.678619,110.514404 329.678619,110.514404 329.480804,109.872864 329.414093,109.205688 329.414093,109.205688 329.481171,108.538513 329.679230,107.896912 329.679230,107.896912 330.000763,107.305542 330.000763,107.305542 330.433441,106.787231 330.433441,106.787231 330.960602,106.361816 330.960602,106.361816 331.561981,106.045715 331.561981,106.045715 332.214386,105.851135 332.214386,105.851135 332.892914,105.785339 332.892914,105.785339 333.571381,105.851135 333.571381,105.851135 334.223846,106.045715 334.223846,106.045715 334.825165,106.361816 334.825165,106.361816 335.352325,106.787231 335.352325,106.787231 335.785004,107.305542 335.785004,107.305542 336.106537,107.896912 336.106537,107.896912 336.304657,108.538513 336.371674,109.205688 336.371674,109.205688 336.305023,109.872864 336.107208,110.514404 336.107208,110.514404 335.785858,111.105652 335.785858,111.105652 335.353241,111.623840 335.353241,111.623840 334.826019,112.049072 334.826019,112.049072 334.224518,112.365112 334.224518,112.365112 333.571747,112.559692 333.571747,112.559692 332.892914,112.625366"
           id="polyline344" />
        <polyline
           stroke="#000000"
           stroke-opacity="1"
           fill="none"
           stroke-linecap="round"
           stroke-width="2"
           points="557.247314,336.304565 556.580078,336.371582 556.580078,336.371582 555.912964,336.304901 555.912964,336.304901 555.271362,336.107086 555.271362,336.107086 554.680176,335.785706 554.680176,335.785706 554.161865,335.353149 554.161865,335.353149 553.736572,334.825928 553.736572,334.825928 553.420654,334.224396 553.420654,334.224396 553.226074,333.571655 553.160278,332.892822 553.160278,332.892822 553.226074,332.213928 553.420654,331.561188 553.420654,331.561188 553.736572,330.959656 553.736572,330.959656 554.161865,330.432465 554.161865,330.432465 554.680176,329.999878 554.680176,329.999878 555.271362,329.678497 555.271362,329.678497 555.912964,329.480682 555.912964,329.480682 556.580078,329.414032 556.580078,329.414032 557.247314,329.481049 557.247314,329.481049 557.888916,329.679138 557.888916,329.679138 558.480225,330.000732 558.480225,330.000732 558.998535,330.433380 558.998535,330.433380 559.423828,330.960510 559.423828,330.960510 559.739990,331.561859 559.739990,331.561859 559.934692,332.214294 560.000366,332.892822 560.000366,332.892822 559.934692,333.571289 559.739990,334.223755 559.739990,334.223755 559.423828,334.825073 559.423828,334.825073 558.998535,335.352234 558.998535,335.352234 558.480225,335.784882 558.480225,335.784882 557.888916,336.106445 557.888916,336.106445 557.247314,336.304565"
           id="polyline346" />
        <polyline
           stroke="#000000"
           stroke-opacity="1"
           fill="none"
           stroke-linecap="round"
           stroke-width="2"
           points="105.785461,332.892822 105.851227,333.571381 106.045868,334.223785"
           id="polyline348" />
        <polyline
           stroke="#000000"
           stroke-opacity="1"
           fill="none"
           stroke-linecap="round"
           stroke-width="2"
           points="111.105743,335.785797 110.514526,336.107147"
           id="polyline350" />
        <polyline
           stroke="#000000"
           stroke-opacity="1"
           fill="none"
           stroke-linecap="round"
           stroke-width="2"
           points="111.105743,335.785797 111.623962,335.353180"
           id="polyline352" />
        <polyline
           stroke="#000000"
           stroke-opacity="1"
           fill="none"
           stroke-linecap="round"
           stroke-width="2"
           points="109.872986,329.480743 110.514526,329.678558"
           id="polyline354" />
        <polyline
           stroke="#000000"
           stroke-opacity="1"
           fill="none"
           stroke-linecap="round"
           stroke-width="2"
           points="109.872986,329.480743 109.205811,329.414062"
           id="polyline356" />
        <polyline
           stroke="#000000"
           stroke-opacity="1"
           fill="none"
           stroke-linecap="round"
           stroke-width="2"
           points="106.361938,334.825134 106.045868,334.223785"
           id="polyline358" />
        <polyline
           stroke="#000000"
           stroke-opacity="1"
           fill="none"
           stroke-linecap="round"
           stroke-width="2"
           points="106.361938,334.825134 106.787292,335.352264"
           id="polyline360" />
        <polyline
           stroke="#000000"
           stroke-opacity="1"
           fill="none"
           stroke-linecap="round"
           stroke-width="2"
           points="105.785461,332.892822 105.851227,332.214355 106.045868,331.561890"
           id="polyline362" />
        <polyline
           stroke="#000000"
           stroke-opacity="1"
           fill="none"
           stroke-linecap="round"
           stroke-width="2"
           points="111.105743,329.999939 110.514526,329.678558"
           id="polyline364" />
        <polyline
           stroke="#000000"
           stroke-opacity="1"
           fill="none"
           stroke-linecap="round"
           stroke-width="2"
           points="111.105743,329.999939 111.623962,330.432495"
           id="polyline366" />
        <polyline
           stroke="#000000"
           stroke-opacity="1"
           fill="none"
           stroke-linecap="round"
           stroke-width="2"
           points="112.049225,334.825989 112.365204,334.224457"
           id="polyline368" />
        <polyline
           stroke="#000000"
           stroke-opacity="1"
           fill="none"
           stroke-linecap="round"
           stroke-width="2"
           points="112.049225,334.825989 111.623962,335.353180"
           id="polyline370" />
        <polyline
           stroke="#000000"
           stroke-opacity="1"
           fill="none"
           stroke-linecap="round"
           stroke-width="2"
           points="106.361938,330.960571 106.045868,331.561890"
           id="polyline372" />
        <polyline
           stroke="#000000"
           stroke-opacity="1"
           fill="none"
           stroke-linecap="round"
           stroke-width="2"
           points="106.361938,330.960571 106.787292,330.433411"
           id="polyline374" />
        <polyline
           stroke="#000000"
           stroke-opacity="1"
           fill="none"
           stroke-linecap="round"
           stroke-width="2"
           points="107.305603,335.784943 107.896912,336.106476"
           id="polyline376" />
        <polyline
           stroke="#000000"
           stroke-opacity="1"
           fill="none"
           stroke-linecap="round"
           stroke-width="2"
           points="107.305603,335.784943 106.787292,335.352264"
           id="polyline378" />
        <polyline
           stroke="#000000"
           stroke-opacity="1"
           fill="none"
           stroke-linecap="round"
           stroke-width="2"
           points="112.625488,332.892822 112.559784,333.571716 112.365204,334.224457"
           id="polyline380" />
        <polyline
           stroke="#000000"
           stroke-opacity="1"
           fill="none"
           stroke-linecap="round"
           stroke-width="2"
           points="112.625488,332.892822 112.559784,332.213989 112.365204,331.561249"
           id="polyline382" />
        <polyline
           stroke="#000000"
           stroke-opacity="1"
           fill="none"
           stroke-linecap="round"
           stroke-width="2"
           points="112.049225,330.959717 112.365204,331.561249"
           id="polyline384" />
        <polyline
           stroke="#000000"
           stroke-opacity="1"
           fill="none"
           stroke-linecap="round"
           stroke-width="2"
           points="112.049225,330.959717 111.623962,330.432495"
           id="polyline386" />
        <polyline
           stroke="#000000"
           stroke-opacity="1"
           fill="none"
           stroke-linecap="round"
           stroke-width="2"
           points="108.538544,336.304596 107.896912,336.106476"
           id="polyline388" />
        <polyline
           stroke="#000000"
           stroke-opacity="1"
           fill="none"
           stroke-linecap="round"
           stroke-width="2"
           points="108.538544,336.304596 109.205811,336.371643"
           id="polyline390" />
        <polyline
           stroke="#000000"
           stroke-opacity="1"
           fill="none"
           stroke-linecap="round"
           stroke-width="2"
           points="108.538544,329.481079 107.896912,329.679199"
           id="polyline392" />
        <polyline
           stroke="#000000"
           stroke-opacity="1"
           fill="none"
           stroke-linecap="round"
           stroke-width="2"
           points="107.305603,330.000763 107.896912,329.679199"
           id="polyline394" />
        <polyline
           stroke="#000000"
           stroke-opacity="1"
           fill="none"
           stroke-linecap="round"
           stroke-width="2"
           points="107.305603,330.000763 106.787292,330.433411"
           id="polyline396" />
        <polyline
           stroke="#000000"
           stroke-opacity="1"
           fill="none"
           stroke-linecap="round"
           stroke-width="2"
           points="108.538544,329.481079 109.205811,329.414062"
           id="polyline398" />
        <polyline
           stroke="#000000"
           stroke-opacity="1"
           fill="none"
           stroke-linecap="round"
           stroke-width="2"
           points="109.872986,336.304962 110.514526,336.107147"
           id="polyline400" />
        <polyline
           stroke="#000000"
           stroke-opacity="1"
           fill="none"
           stroke-linecap="round"
           stroke-width="2"
           points="109.872986,336.304962 109.205811,336.371643"
           id="polyline402" />
      </g>
    </g>
  </g>
</svg>
