<?xml version="1.0" encoding="UTF-8" standalone="no"?>
<!-- Generator: Blender, SVG Export for Grease Pencil - v1.0 -->

<svg
   version="1.0"
   x="0px"
   y="0px"
   width="604.72443"
   height="604.72412"
   viewBox="0 0 604.72443 604.72412"
   id="svg996"
   sodipodi:docname="TopBottomCut.svg"
   xml:space="preserve"
   inkscape:export-filename="TopBottomCut.svg"
   inkscape:export-xdpi="96"
   inkscape:export-ydpi="96"
   inkscape:version="1.2.1 (9c6d41e410, 2022-07-14)"
   xmlns:inkscape="http://www.inkscape.org/namespaces/inkscape"
   xmlns:sodipodi="http://sodipodi.sourceforge.net/DTD/sodipodi-0.dtd"
   xmlns="http://www.w3.org/2000/svg"
   xmlns:svg="http://www.w3.org/2000/svg"><defs
     id="defs1000" /><sodipodi:namedview
     id="namedview998"
     pagecolor="#ffffff"
     bordercolor="#000000"
     borderopacity="0.25"
     inkscape:showpageshadow="2"
     inkscape:pageopacity="0.0"
     inkscape:pagecheckerboard="0"
     inkscape:deskcolor="#d1d1d1"
     showgrid="false"
     inkscape:zoom="1.2949527"
     inkscape:cx="307.34714"
     inkscape:cy="308.11937"
     inkscape:window-width="1920"
     inkscape:window-height="986"
     inkscape:window-x="2869"
     inkscape:window-y="-11"
     inkscape:window-maximized="1"
     inkscape:current-layer="svg996" /><g
     id="blender_frame_1"
     transform="matrix(0.98138947,0,0,0.98138947,-8.8322097,-8.8325052)"><g
       id="blender_object_GPencil.001"><!--Layer: Cylinder_003_Lines--><g
         id="Cylinder_003_Lines"><polyline
           stroke="#000000"
           stroke-opacity="1"
           fill="none"
           stroke-linecap="round"
           stroke-width="2"
           points="317.095764,10.000000 332.164246,10.369873 347.196411,11.478699 362.156067,13.323792 377.007141,15.900696 391.713928,19.203247 406.240906,23.223389 420.553223,27.951538 434.616211,33.376282 448.396118,39.484497 461.859680,46.261475 474.974487,53.690918 487.709045,61.754944 500.032471,70.434082 511.915283,79.707520 523.328674,89.552795 534.245239,99.946228 544.638672,110.862854 554.484009,122.276245 563.757324,134.158997 572.436584,146.482483 580.500671,159.216980 587.930115,172.331848 594.707092,185.795380 600.815247,199.575256 606.239929,213.638275 610.968079,227.950562 614.988220,242.477539 618.290710,257.184357 620.867615,272.035431 622.712708,286.995087 623.821594,302.027283 624.191467,317.095764 623.821594,332.164215 622.712708,347.196381 620.867615,362.156067 618.290710,377.007202 614.988220,391.713928 610.968079,406.240967 606.239929,420.553223 600.815247,434.616211 594.707092,448.396118 587.929993,461.859680 580.500549,474.974548 572.436462,487.708984 563.757324,500.032471 554.483948,511.915283 544.638672,523.328674 534.245239,534.245239 523.328613,544.638672 511.915283,554.484009 500.032471,563.757385 487.708984,572.436523 474.974487,580.500610 461.859680,587.929993 448.396118,594.707031 434.616211,600.815186 420.553223,606.239929 406.240906,610.968018 391.713928,614.988220 377.007141,618.290710 362.156067,620.867676 347.196411,622.712708 332.164185,623.821594 317.095703,624.191467 302.027283,623.821594 286.995056,622.712708 272.035400,620.867676 257.184326,618.290710 242.477539,614.988220 227.950500,610.968018 213.638245,606.239929 199.575195,600.815186 185.795349,594.706970 172.331787,587.929993 159.216919,580.500549 146.482483,572.436462 134.158997,563.757324 122.276245,554.483948 110.862854,544.638672 99.946228,534.245239 89.552734,523.328613 79.707520,511.915161 70.434082,500.032471 61.754944,487.708984 53.690918,474.974487 46.261475,461.859619 39.484436,448.396057 33.376251,434.616150 27.951569,420.553162 23.223389,406.240845 19.203278,391.713867 15.900726,377.007080 13.323822,362.156006 11.478729,347.196350 10.369843,332.164154 10.000000,317.095703 10.369843,302.027222 11.478729,286.995056 13.323822,272.035370 15.900726,257.184326 19.203278,242.477509 23.223389,227.950531 27.951569,213.638245 33.376251,199.575256 39.484497,185.795349 46.261475,172.331726 53.690918,159.216919 61.754944,146.482422 70.434143,134.158997 79.707520,122.276184 89.552856,110.862793 99.946289,99.946167 110.862854,89.552734 122.276245,79.707520 134.158997,70.434082 146.482483,61.754944 159.217041,53.690857 172.331848,46.261475 185.795410,39.484436 199.575317,33.376282 213.638306,27.951538 227.950623,23.223389 242.477600,19.203247 257.184387,15.900696 272.035461,13.323792 286.995117,11.478699 302.027283,10.369873"
           id="polyline769" /><polyline
           stroke="#000000"
           stroke-opacity="1"
           fill="none"
           stroke-linecap="round"
           stroke-width="2"
           points="317.662109,500.911682 317.095764,500.857056"
           id="polyline771" /><polyline
           stroke="#000000"
           stroke-opacity="1"
           fill="none"
           stroke-linecap="round"
           stroke-width="2"
           points="314.193665,130.490479 314.249207,131.045349 314.414246,131.578857"
           id="polyline773" /><polyline
           stroke="#000000"
           stroke-opacity="1"
           fill="none"
           stroke-linecap="round"
           stroke-width="2"
           points="316.529358,133.279846 315.984802,133.118042"
           id="polyline775" /><polyline
           stroke="#000000"
           stroke-opacity="1"
           fill="none"
           stroke-linecap="round"
           stroke-width="2"
           points="318.708435,132.855164 318.206604,133.118042"
           id="polyline777" /><polyline
           stroke="#000000"
           stroke-opacity="1"
           fill="none"
           stroke-linecap="round"
           stroke-width="2"
           points="131.045349,319.942261 131.578857,319.777252"
           id="polyline779" /><polyline
           stroke="#000000"
           stroke-opacity="1"
           fill="none"
           stroke-linecap="round"
           stroke-width="2"
           points="318.708435,132.855164 319.148254,132.501526"
           id="polyline781" /><polyline
           stroke="#000000"
           stroke-opacity="1"
           fill="none"
           stroke-linecap="round"
           stroke-width="2"
           points="316.529358,133.279846 317.095703,133.334473"
           id="polyline783" /><polyline
           stroke="#000000"
           stroke-opacity="1"
           fill="none"
           stroke-linecap="round"
           stroke-width="2"
           points="500.856995,317.095734 500.911621,317.662079 501.073486,318.206635"
           id="polyline785" /><polyline
           stroke="#000000"
           stroke-opacity="1"
           fill="none"
           stroke-linecap="round"
           stroke-width="2"
           points="503.146179,319.942230 503.701111,319.997833 504.255981,319.941895 504.789673,319.776611"
           id="polyline787" /><polyline
           stroke="#000000"
           stroke-opacity="1"
           fill="none"
           stroke-linecap="round"
           stroke-width="2"
           points="314.682312,502.120911 315.043213,501.689941"
           id="polyline789" /><polyline
           stroke="#000000"
           stroke-opacity="1"
           fill="none"
           stroke-linecap="round"
           stroke-width="2"
           points="503.146179,319.942230 502.612671,319.777222"
           id="polyline791" /><polyline
           stroke="#000000"
           stroke-opacity="1"
           fill="none"
           stroke-linecap="round"
           stroke-width="2"
           points="504.255981,314.249603 504.789673,314.414856"
           id="polyline793" /><polyline
           stroke="#000000"
           stroke-opacity="1"
           fill="none"
           stroke-linecap="round"
           stroke-width="2"
           points="506.545959,317.095734 506.491333,316.529755 506.329407,315.985474"
           id="polyline795" /><polyline
           stroke="#000000"
           stroke-opacity="1"
           fill="none"
           stroke-linecap="round"
           stroke-width="2"
           points="504.255981,314.249603 503.701111,314.193665"
           id="polyline797" /><polyline
           stroke="#000000"
           stroke-opacity="1"
           fill="none"
           stroke-linecap="round"
           stroke-width="2"
           points="127.645569,317.095764 127.700195,317.661774 127.862122,318.206055"
           id="polyline799" /><polyline
           stroke="#000000"
           stroke-opacity="1"
           fill="none"
           stroke-linecap="round"
           stroke-width="2"
           points="129.935486,319.941925 129.401794,319.776642"
           id="polyline801" /><polyline
           stroke="#000000"
           stroke-opacity="1"
           fill="none"
           stroke-linecap="round"
           stroke-width="2"
           points="132.070618,319.509186 131.578857,319.777252"
           id="polyline803" /><polyline
           stroke="#000000"
           stroke-opacity="1"
           fill="none"
           stroke-linecap="round"
           stroke-width="2"
           points="133.334473,317.095764 133.279785,316.529449 133.117981,315.984894"
           id="polyline805" /><polyline
           stroke="#000000"
           stroke-opacity="1"
           fill="none"
           stroke-linecap="round"
           stroke-width="2"
           points="132.070618,319.509186 132.501587,319.148346"
           id="polyline807" /><polyline
           stroke="#000000"
           stroke-opacity="1"
           fill="none"
           stroke-linecap="round"
           stroke-width="2"
           points="129.935486,319.941925 130.490417,319.997864"
           id="polyline809" /><polyline
           stroke="#000000"
           stroke-opacity="1"
           fill="none"
           stroke-linecap="round"
           stroke-width="2"
           points="314.193726,503.701111 314.249634,504.256042 314.414917,504.789734"
           id="polyline811" /><polyline
           stroke="#000000"
           stroke-opacity="1"
           fill="none"
           stroke-linecap="round"
           stroke-width="2"
           points="316.529785,506.491272 315.985535,506.329407"
           id="polyline813" /><polyline
           stroke="#000000"
           stroke-opacity="1"
           fill="none"
           stroke-linecap="round"
           stroke-width="2"
           points="133.334473,317.095764 133.279785,317.662140 133.117981,318.206696"
           id="polyline815" /><polyline
           stroke="#000000"
           stroke-opacity="1"
           fill="none"
           stroke-linecap="round"
           stroke-width="2"
           points="318.707703,506.066467 318.206055,506.329407"
           id="polyline817" /><polyline
           stroke="#000000"
           stroke-opacity="1"
           fill="none"
           stroke-linecap="round"
           stroke-width="2"
           points="319.997864,503.701111 319.942261,503.146118 319.777283,502.612610"
           id="polyline819" /><polyline
           stroke="#000000"
           stroke-opacity="1"
           fill="none"
           stroke-linecap="round"
           stroke-width="2"
           points="318.707703,506.066467 319.147400,505.712646"
           id="polyline821" /><polyline
           stroke="#000000"
           stroke-opacity="1"
           fill="none"
           stroke-linecap="round"
           stroke-width="2"
           points="317.095764,10.000000 302.027283,10.369873"
           id="polyline823" /><polyline
           stroke="#000000"
           stroke-opacity="1"
           fill="none"
           stroke-linecap="round"
           stroke-width="2"
           points="314.193665,130.490479 314.249573,129.935486 314.414856,129.401855"
           id="polyline825" /><polyline
           stroke="#000000"
           stroke-opacity="1"
           fill="none"
           stroke-linecap="round"
           stroke-width="2"
           points="315.483826,128.125061 315.985413,127.862122"
           id="polyline827" /><polyline
           stroke="#000000"
           stroke-opacity="1"
           fill="none"
           stroke-linecap="round"
           stroke-width="2"
           points="315.483826,128.125061 315.044067,128.478882"
           id="polyline829" /><polyline
           stroke="#000000"
           stroke-opacity="1"
           fill="none"
           stroke-linecap="round"
           stroke-width="2"
           points="317.661743,127.700195 318.205994,127.862122"
           id="polyline831" /><polyline
           stroke="#000000"
           stroke-opacity="1"
           fill="none"
           stroke-linecap="round"
           stroke-width="2"
           points="501.336243,315.483002 501.689941,315.043213"
           id="polyline833" /><polyline
           stroke="#000000"
           stroke-opacity="1"
           fill="none"
           stroke-linecap="round"
           stroke-width="2"
           points="319.997803,130.490479 319.942200,131.045349 319.777222,131.578857"
           id="polyline835" /><polyline
           stroke="#000000"
           stroke-opacity="1"
           fill="none"
           stroke-linecap="round"
           stroke-width="2"
           points="317.661743,127.700195 317.095703,127.645508"
           id="polyline837" /><polyline
           stroke="#000000"
           stroke-opacity="1"
           fill="none"
           stroke-linecap="round"
           stroke-width="2"
           points="500.856995,317.095734 500.911621,316.529388 501.073486,315.984833"
           id="polyline839" /><polyline
           stroke="#000000"
           stroke-opacity="1"
           fill="none"
           stroke-linecap="round"
           stroke-width="2"
           points="502.120911,314.682343 502.612671,314.414246"
           id="polyline841" /><polyline
           stroke="#000000"
           stroke-opacity="1"
           fill="none"
           stroke-linecap="round"
           stroke-width="2"
           points="502.120911,314.682343 501.689941,315.043213"
           id="polyline843" /><polyline
           stroke="#000000"
           stroke-opacity="1"
           fill="none"
           stroke-linecap="round"
           stroke-width="2"
           points="506.545959,317.095734 506.491333,317.661743 506.329407,318.206024"
           id="polyline845" /><polyline
           stroke="#000000"
           stroke-opacity="1"
           fill="none"
           stroke-linecap="round"
           stroke-width="2"
           points="127.645569,317.095764 127.700195,316.529785 127.862122,315.985504"
           id="polyline847" /><polyline
           stroke="#000000"
           stroke-opacity="1"
           fill="none"
           stroke-linecap="round"
           stroke-width="2"
           points="128.909973,314.683197 129.401794,314.414917"
           id="polyline849" /><polyline
           stroke="#000000"
           stroke-opacity="1"
           fill="none"
           stroke-linecap="round"
           stroke-width="2"
           points="128.909973,314.683197 128.478882,315.044128"
           id="polyline851" /><polyline
           stroke="#000000"
           stroke-opacity="1"
           fill="none"
           stroke-linecap="round"
           stroke-width="2"
           points="131.045349,314.249268 131.578857,314.414307"
           id="polyline853" /><polyline
           stroke="#000000"
           stroke-opacity="1"
           fill="none"
           stroke-linecap="round"
           stroke-width="2"
           points="131.045349,314.249268 130.490417,314.193695"
           id="polyline855" /><polyline
           stroke="#000000"
           stroke-opacity="1"
           fill="none"
           stroke-linecap="round"
           stroke-width="2"
           points="314.193726,503.701111 314.249268,503.146118 314.414307,502.612610"
           id="polyline857" /><polyline
           stroke="#000000"
           stroke-opacity="1"
           fill="none"
           stroke-linecap="round"
           stroke-width="2"
           points="315.483032,501.336304 315.984863,501.073486"
           id="polyline859" /><polyline
           stroke="#000000"
           stroke-opacity="1"
           fill="none"
           stroke-linecap="round"
           stroke-width="2"
           points="315.483032,501.336304 315.043213,501.689941"
           id="polyline861" /><polyline
           stroke="#000000"
           stroke-opacity="1"
           fill="none"
           stroke-linecap="round"
           stroke-width="2"
           points="132.070618,314.682373 132.501587,315.043243"
           id="polyline863" /><polyline
           stroke="#000000"
           stroke-opacity="1"
           fill="none"
           stroke-linecap="round"
           stroke-width="2"
           points="317.662109,500.911682 318.206665,501.073486"
           id="polyline865" /><polyline
           stroke="#000000"
           stroke-opacity="1"
           fill="none"
           stroke-linecap="round"
           stroke-width="2"
           points="319.997864,503.701111 319.941895,504.256042 319.776611,504.789734"
           id="polyline867" /><polyline
           stroke="#000000"
           stroke-opacity="1"
           fill="none"
           stroke-linecap="round"
           stroke-width="2"
           points="314.682312,132.070618 314.414246,131.578857"
           id="polyline869" /><polyline
           stroke="#000000"
           stroke-opacity="1"
           fill="none"
           stroke-linecap="round"
           stroke-width="2"
           points="314.682312,132.070618 315.043152,132.501526"
           id="polyline871" /><polyline
           stroke="#000000"
           stroke-opacity="1"
           fill="none"
           stroke-linecap="round"
           stroke-width="2"
           points="501.336243,318.708466 501.073486,318.206635"
           id="polyline873" /><polyline
           stroke="#000000"
           stroke-opacity="1"
           fill="none"
           stroke-linecap="round"
           stroke-width="2"
           points="501.336243,318.708466 501.689941,319.148285"
           id="polyline875" /><polyline
           stroke="#000000"
           stroke-opacity="1"
           fill="none"
           stroke-linecap="round"
           stroke-width="2"
           points="505.281494,314.683167 504.789673,314.414856"
           id="polyline877" /><polyline
           stroke="#000000"
           stroke-opacity="1"
           fill="none"
           stroke-linecap="round"
           stroke-width="2"
           points="505.281494,314.683167 505.712646,315.044098"
           id="polyline879" /><polyline
           stroke="#000000"
           stroke-opacity="1"
           fill="none"
           stroke-linecap="round"
           stroke-width="2"
           points="128.125000,318.707672 127.862122,318.206055"
           id="polyline881" /><polyline
           stroke="#000000"
           stroke-opacity="1"
           fill="none"
           stroke-linecap="round"
           stroke-width="2"
           points="128.125000,318.707672 128.478882,319.147430"
           id="polyline883" /><polyline
           stroke="#000000"
           stroke-opacity="1"
           fill="none"
           stroke-linecap="round"
           stroke-width="2"
           points="314.683167,505.281494 314.414917,504.789734"
           id="polyline885" /><polyline
           stroke="#000000"
           stroke-opacity="1"
           fill="none"
           stroke-linecap="round"
           stroke-width="2"
           points="314.683167,505.281494 315.044128,505.712646"
           id="polyline887" /><polyline
           stroke="#000000"
           stroke-opacity="1"
           fill="none"
           stroke-linecap="round"
           stroke-width="2"
           points="316.529724,127.700195 315.985413,127.862122"
           id="polyline889" /><polyline
           stroke="#000000"
           stroke-opacity="1"
           fill="none"
           stroke-linecap="round"
           stroke-width="2"
           points="318.708496,501.336304 319.148315,501.689941"
           id="polyline891" /><polyline
           stroke="#000000"
           stroke-opacity="1"
           fill="none"
           stroke-linecap="round"
           stroke-width="2"
           points="318.707581,128.125061 318.205994,127.862122"
           id="polyline893" /><polyline
           stroke="#000000"
           stroke-opacity="1"
           fill="none"
           stroke-linecap="round"
           stroke-width="2"
           points="316.529724,127.700195 317.095703,127.645508"
           id="polyline895" /><polyline
           stroke="#000000"
           stroke-opacity="1"
           fill="none"
           stroke-linecap="round"
           stroke-width="2"
           points="503.146179,314.249268 502.612671,314.414246"
           id="polyline897" /><polyline
           stroke="#000000"
           stroke-opacity="1"
           fill="none"
           stroke-linecap="round"
           stroke-width="2"
           points="505.281494,319.508331 504.789673,319.776611"
           id="polyline899" /><polyline
           stroke="#000000"
           stroke-opacity="1"
           fill="none"
           stroke-linecap="round"
           stroke-width="2"
           points="505.281494,319.508331 505.712646,319.147369"
           id="polyline901" /><polyline
           stroke="#000000"
           stroke-opacity="1"
           fill="none"
           stroke-linecap="round"
           stroke-width="2"
           points="503.146179,314.249268 503.701111,314.193665"
           id="polyline903" /><polyline
           stroke="#000000"
           stroke-opacity="1"
           fill="none"
           stroke-linecap="round"
           stroke-width="2"
           points="129.935486,314.249634 129.401794,314.414917"
           id="polyline905" /><polyline
           stroke="#000000"
           stroke-opacity="1"
           fill="none"
           stroke-linecap="round"
           stroke-width="2"
           points="132.070618,314.682373 131.578857,314.414307"
           id="polyline907" /><polyline
           stroke="#000000"
           stroke-opacity="1"
           fill="none"
           stroke-linecap="round"
           stroke-width="2"
           points="129.935486,314.249634 130.490417,314.193695"
           id="polyline909" /><polyline
           stroke="#000000"
           stroke-opacity="1"
           fill="none"
           stroke-linecap="round"
           stroke-width="2"
           points="316.529419,500.911682 315.984863,501.073486"
           id="polyline911" /><polyline
           stroke="#000000"
           stroke-opacity="1"
           fill="none"
           stroke-linecap="round"
           stroke-width="2"
           points="318.708496,501.336304 318.206665,501.073486"
           id="polyline913" /><polyline
           stroke="#000000"
           stroke-opacity="1"
           fill="none"
           stroke-linecap="round"
           stroke-width="2"
           points="316.529419,500.911682 317.095764,500.857056"
           id="polyline915" /><polyline
           stroke="#000000"
           stroke-opacity="1"
           fill="none"
           stroke-linecap="round"
           stroke-width="2"
           points="319.509155,132.070618 319.777222,131.578857"
           id="polyline917" /><polyline
           stroke="#000000"
           stroke-opacity="1"
           fill="none"
           stroke-linecap="round"
           stroke-width="2"
           points="319.509155,132.070618 319.148254,132.501526"
           id="polyline919" /><polyline
           stroke="#000000"
           stroke-opacity="1"
           fill="none"
           stroke-linecap="round"
           stroke-width="2"
           points="132.855225,318.708496 133.117981,318.206696"
           id="polyline921" /><polyline
           stroke="#000000"
           stroke-opacity="1"
           fill="none"
           stroke-linecap="round"
           stroke-width="2"
           points="132.855225,318.708496 132.501587,319.148346"
           id="polyline923" /><polyline
           stroke="#000000"
           stroke-opacity="1"
           fill="none"
           stroke-linecap="round"
           stroke-width="2"
           points="319.508362,505.281494 319.776611,504.789734"
           id="polyline925" /><polyline
           stroke="#000000"
           stroke-opacity="1"
           fill="none"
           stroke-linecap="round"
           stroke-width="2"
           points="319.508362,505.281494 319.147400,505.712646"
           id="polyline927" /><polyline
           stroke="#000000"
           stroke-opacity="1"
           fill="none"
           stroke-linecap="round"
           stroke-width="2"
           points="314.683167,128.909973 314.414856,129.401855"
           id="polyline929" /><polyline
           stroke="#000000"
           stroke-opacity="1"
           fill="none"
           stroke-linecap="round"
           stroke-width="2"
           points="314.683167,128.909973 315.044067,128.478882"
           id="polyline931" /><polyline
           stroke="#000000"
           stroke-opacity="1"
           fill="none"
           stroke-linecap="round"
           stroke-width="2"
           points="501.336243,315.483002 501.073486,315.984833"
           id="polyline933" /><polyline
           stroke="#000000"
           stroke-opacity="1"
           fill="none"
           stroke-linecap="round"
           stroke-width="2"
           points="316.529785,506.491272 317.095764,506.545959"
           id="polyline935" /><polyline
           stroke="#000000"
           stroke-opacity="1"
           fill="none"
           stroke-linecap="round"
           stroke-width="2"
           points="128.125000,315.483887 127.862122,315.985504"
           id="polyline937" /><polyline
           stroke="#000000"
           stroke-opacity="1"
           fill="none"
           stroke-linecap="round"
           stroke-width="2"
           points="128.125000,315.483887 128.478882,315.044128"
           id="polyline939" /><polyline
           stroke="#000000"
           stroke-opacity="1"
           fill="none"
           stroke-linecap="round"
           stroke-width="2"
           points="314.682312,502.120911 314.414307,502.612610"
           id="polyline941" /><polyline
           stroke="#000000"
           stroke-opacity="1"
           fill="none"
           stroke-linecap="round"
           stroke-width="2"
           points="315.482971,132.855164 315.984802,133.118042"
           id="polyline943" /><polyline
           stroke="#000000"
           stroke-opacity="1"
           fill="none"
           stroke-linecap="round"
           stroke-width="2"
           points="315.482971,132.855164 315.043152,132.501526"
           id="polyline945" /><polyline
           stroke="#000000"
           stroke-opacity="1"
           fill="none"
           stroke-linecap="round"
           stroke-width="2"
           points="317.662048,133.279846 318.206604,133.118042"
           id="polyline947" /><polyline
           stroke="#000000"
           stroke-opacity="1"
           fill="none"
           stroke-linecap="round"
           stroke-width="2"
           points="319.997803,130.490479 319.941895,129.935486 319.776550,129.401855"
           id="polyline949" /><polyline
           stroke="#000000"
           stroke-opacity="1"
           fill="none"
           stroke-linecap="round"
           stroke-width="2"
           points="502.120911,319.509155 501.689941,319.148285"
           id="polyline951" /><polyline
           stroke="#000000"
           stroke-opacity="1"
           fill="none"
           stroke-linecap="round"
           stroke-width="2"
           points="317.662048,133.279846 317.095703,133.334473"
           id="polyline953" /><polyline
           stroke="#000000"
           stroke-opacity="1"
           fill="none"
           stroke-linecap="round"
           stroke-width="2"
           points="502.120911,319.509155 502.612671,319.777222"
           id="polyline955" /><polyline
           stroke="#000000"
           stroke-opacity="1"
           fill="none"
           stroke-linecap="round"
           stroke-width="2"
           points="318.707581,128.125061 319.147339,128.478882"
           id="polyline957" /><polyline
           stroke="#000000"
           stroke-opacity="1"
           fill="none"
           stroke-linecap="round"
           stroke-width="2"
           points="506.066528,315.483826 506.329407,315.985474"
           id="polyline959" /><polyline
           stroke="#000000"
           stroke-opacity="1"
           fill="none"
           stroke-linecap="round"
           stroke-width="2"
           points="506.066528,315.483826 505.712646,315.044098"
           id="polyline961" /><polyline
           stroke="#000000"
           stroke-opacity="1"
           fill="none"
           stroke-linecap="round"
           stroke-width="2"
           points="128.909973,319.508362 129.401794,319.776642"
           id="polyline963" /><polyline
           stroke="#000000"
           stroke-opacity="1"
           fill="none"
           stroke-linecap="round"
           stroke-width="2"
           points="128.909973,319.508362 128.478882,319.147430"
           id="polyline965" /><polyline
           stroke="#000000"
           stroke-opacity="1"
           fill="none"
           stroke-linecap="round"
           stroke-width="2"
           points="131.045349,319.942261 130.490417,319.997864"
           id="polyline967" /><polyline
           stroke="#000000"
           stroke-opacity="1"
           fill="none"
           stroke-linecap="round"
           stroke-width="2"
           points="315.483887,506.066467 315.985535,506.329407"
           id="polyline969" /><polyline
           stroke="#000000"
           stroke-opacity="1"
           fill="none"
           stroke-linecap="round"
           stroke-width="2"
           points="315.483887,506.066467 315.044128,505.712646"
           id="polyline971" /><polyline
           stroke="#000000"
           stroke-opacity="1"
           fill="none"
           stroke-linecap="round"
           stroke-width="2"
           points="317.661804,506.491272 318.206055,506.329407"
           id="polyline973" /><polyline
           stroke="#000000"
           stroke-opacity="1"
           fill="none"
           stroke-linecap="round"
           stroke-width="2"
           points="317.661804,506.491272 317.095764,506.545959"
           id="polyline975" /><polyline
           stroke="#000000"
           stroke-opacity="1"
           fill="none"
           stroke-linecap="round"
           stroke-width="2"
           points="319.508301,128.909973 319.776550,129.401855"
           id="polyline977" /><polyline
           stroke="#000000"
           stroke-opacity="1"
           fill="none"
           stroke-linecap="round"
           stroke-width="2"
           points="319.508301,128.909973 319.147339,128.478882"
           id="polyline979" /><polyline
           stroke="#000000"
           stroke-opacity="1"
           fill="none"
           stroke-linecap="round"
           stroke-width="2"
           points="506.066528,318.707642 506.329407,318.206024"
           id="polyline981" /><polyline
           stroke="#000000"
           stroke-opacity="1"
           fill="none"
           stroke-linecap="round"
           stroke-width="2"
           points="506.066528,318.707642 505.712646,319.147369"
           id="polyline983" /><polyline
           stroke="#000000"
           stroke-opacity="1"
           fill="none"
           stroke-linecap="round"
           stroke-width="2"
           points="132.855225,315.483032 133.117981,315.984894"
           id="polyline985" /><polyline
           stroke="#000000"
           stroke-opacity="1"
           fill="none"
           stroke-linecap="round"
           stroke-width="2"
           points="132.855225,315.483032 132.501587,315.043243"
           id="polyline987" /><polyline
           stroke="#000000"
           stroke-opacity="1"
           fill="none"
           stroke-linecap="round"
           stroke-width="2"
           points="319.509216,502.120911 319.777283,502.612610"
           id="polyline989" /><polyline
           stroke="#000000"
           stroke-opacity="1"
           fill="none"
           stroke-linecap="round"
           stroke-width="2"
           points="319.509216,502.120911 319.148315,501.689941"
           id="polyline991" /></g></g></g><g
     id="Circle_Lines"
     transform="matrix(0.97916361,0,0,0.97916361,28.987541,28.987541)"><polyline
       stroke="#000000"
       stroke-opacity="1"
       fill="none"
       stroke-linecap="round"
       stroke-width="2"
       points="274.753967,256.880463 279.192017,256.443359 283.630066,256.880463 287.897522,258.174988 291.830444,260.277191 295.277710,263.106262 298.106812,266.553497 300.208984,270.486450 301.503479,274.753937 301.940613,279.191986 301.503479,283.630005 300.208984,287.897491 298.106812,291.830444 295.277710,295.277679 291.830444,298.106750 287.897522,300.208954 283.630066,301.503479 279.192017,301.940613 274.753967,301.503479 270.486450,300.208954 266.553528,298.106750 263.106262,295.277679 260.277222,291.830444 258.175049,287.897491 256.880493,283.630005 256.443359,279.191986 256.880493,274.753937 258.175049,270.486450 260.277222,266.553497 263.106262,263.106262 266.553528,260.277191 270.486450,258.174988 274.753967,256.880463"
       id="polyline1093" /><polyline
       stroke="#000000"
       stroke-opacity="1"
       fill="none"
       stroke-linecap="round"
       stroke-width="2"
       points="271.055603,238.287537 279.192017,237.486176 287.328369,238.287537 295.152100,240.660828 302.362549,244.514862 308.682434,249.701508 313.869080,256.021454 317.723206,263.231842 320.096436,271.055573 320.897766,279.191986 320.096436,287.328369 317.723206,295.152100 313.869080,302.362457 308.682434,308.682434 302.362549,313.869080 295.152100,317.723114 287.328369,320.096405 279.192017,320.897766 271.055603,320.096405 263.231873,317.723114 256.021545,313.869080 249.701538,308.682434 244.514893,302.362457 240.660828,295.152100 238.287537,287.328369 237.486206,279.191986 238.287537,271.055573 240.660828,263.231842 244.514893,256.021454 249.701538,249.701508 256.021545,244.514862 263.231873,240.660828 271.055603,238.287537"
       id="polyline1095" /><polyline
       stroke="#000000"
       stroke-opacity="1"
       fill="none"
       stroke-linecap="round"
       stroke-width="2"
       points="267.357239,219.694611 279.192017,218.528992 291.026733,219.694611 302.406738,223.146667 312.894531,228.752533 322.087219,236.296753 329.631409,245.489410 335.237305,255.977264 338.689392,267.357208 339.854980,279.191986 338.689392,291.026733 335.237305,302.406708 329.631409,312.894531 322.087219,322.087189 312.894531,329.631409 302.406738,335.237244 291.026733,338.689331 279.192017,339.854980 267.357239,338.689331 255.977295,335.237244 245.489441,329.631409 236.296814,322.087189 228.752563,312.894531 223.146729,302.406708 219.694641,291.026733 218.528992,279.191986 219.694641,267.357208 223.146729,255.977264 228.752563,245.489410 236.296814,236.296753 245.489441,228.752533 255.977295,223.146667 267.357239,219.694611"
       id="polyline1097" /><polyline
       stroke="#000000"
       stroke-opacity="1"
       fill="none"
       stroke-linecap="round"
       stroke-width="2"
       points="263.658875,201.101685 279.192017,199.571777 294.725098,201.101685 309.661316,205.632538 323.426636,212.990204 335.492004,222.891998 345.393738,234.957397 352.751404,248.722656 357.282288,263.658844 358.812134,279.191986 357.282288,294.725098 352.751404,309.661285 345.393738,323.426575 335.492004,335.491913 323.426636,345.393738 309.661316,352.751404 294.725098,357.282288 279.192017,358.812134 263.658875,357.282288 248.722656,352.751404 234.957397,345.393738 222.892029,335.491913 212.990234,323.426575 205.632568,309.661285 201.101685,294.725098 199.571838,279.191986 201.101685,263.658844 205.632568,248.722656 212.990234,234.957397 222.892029,222.891998 234.957397,212.990204 248.722656,205.632538 263.658875,201.101685"
       id="polyline1099" /><polyline
       stroke="#000000"
       stroke-opacity="1"
       fill="none"
       stroke-linecap="round"
       stroke-width="2"
       points="259.960510,182.508728 279.192017,180.614624 298.423462,182.508728 316.915955,188.118378 333.958679,197.227905 348.896729,209.487274 361.156067,224.425354 370.265564,241.468048 375.875244,259.960510 377.769409,279.191986 375.875244,298.423462 370.265564,316.915894 361.156067,333.958618 348.896729,348.896667 333.958679,361.156067 316.915955,370.265564 298.423462,375.875183 279.192017,377.769348 259.960510,375.875183 241.468079,370.265564 224.425354,361.156067 209.487305,348.896667 197.227905,333.958618 188.118408,316.915894 182.508789,298.423462 180.614624,279.191986 182.508789,259.960510 188.118408,241.468048 197.227905,224.425354 209.487305,209.487274 224.425354,197.227905 241.468079,188.118378 259.960510,182.508728"
       id="polyline1101" /><polyline
       stroke="#000000"
       stroke-opacity="1"
       fill="none"
       stroke-linecap="round"
       stroke-width="2"
       points="256.262146,163.915833 279.192017,161.657471 302.121826,163.915833 324.170532,170.604248 344.490662,181.465576 362.301453,196.082489 376.918396,213.893250 387.779785,234.213470 394.468140,256.262115 396.726562,279.191986 394.468140,302.121826 387.779785,324.170502 376.918396,344.490662 362.301453,362.301453 344.490662,376.918396 324.170532,387.779724 302.121826,394.468079 279.192017,396.726501 256.262146,394.468079 234.213440,387.779724 213.893250,376.918396 196.082520,362.301453 181.465637,344.490662 170.604248,324.170502 163.915894,302.121826 161.657471,279.191986 163.915894,256.262115 170.604248,234.213470 181.465637,213.893250 196.082520,196.082489 213.893250,181.465576 234.213440,170.604248 256.262146,163.915833"
       id="polyline1103" /><polyline
       stroke="#000000"
       stroke-opacity="1"
       fill="none"
       stroke-linecap="round"
       stroke-width="2"
       points="252.563782,145.322906 279.192017,142.700256 305.820251,145.322906 331.425171,153.090088 355.022766,165.703278 375.706177,182.677765 392.680725,203.361206 405.293884,226.958832 413.061096,252.563751 415.683716,279.191986 413.061096,305.820190 405.293884,331.425079 392.680725,355.022705 375.706177,375.706177 355.022766,392.680664 331.425171,405.293884 305.820251,413.061035 279.192017,415.683716 252.563782,413.061035 226.958862,405.293884 203.361267,392.680664 182.677795,375.706177 165.703308,355.022705 153.090088,331.425079 145.322937,305.820190 142.700317,279.191986 145.322937,252.563751 153.090088,226.958832 165.703308,203.361206 182.677795,182.677765 203.361267,165.703278 226.958862,153.090088 252.563782,145.322906"
       id="polyline1105" /><polyline
       stroke="#000000"
       stroke-opacity="1"
       fill="none"
       stroke-linecap="round"
       stroke-width="2"
       points="248.865417,126.729950 279.192017,123.743073 309.518555,126.729950 338.679749,135.575928 365.554810,149.940918 389.110962,169.272980 408.443054,192.829193 422.808105,219.704224 431.654053,248.865387 434.640869,279.191986 431.654053,309.518555 422.808105,338.679688 408.443054,365.554749 389.110962,389.110962 365.554810,408.443054 338.679749,422.808044 309.518555,431.653992 279.192017,434.640869 248.865417,431.653992 219.704285,422.808044 192.829224,408.443054 169.273010,389.110962 149.940979,365.554749 135.575928,338.679688 126.729980,309.518555 123.743103,279.191986 126.729980,248.865387 135.575928,219.704224 149.940979,192.829193 169.273010,169.272980 192.829224,149.940918 219.704285,135.575928 248.865417,126.729950"
       id="polyline1107" /><polyline
       stroke="#000000"
       stroke-opacity="1"
       fill="none"
       stroke-linecap="round"
       stroke-width="2"
       points="245.167053,108.137085 279.192017,104.785889 313.216980,108.137085 345.934265,118.061768 376.086792,134.178650 402.515747,155.868256 424.205322,182.297150 440.322205,212.449646 450.246887,245.167023 453.598083,279.191986 450.246887,313.216919 440.322205,345.934265 424.205322,376.086853 402.515747,402.515686 376.086792,424.205322 345.934265,440.322205 313.216980,450.246887 279.192017,453.598083 245.167053,450.246887 212.449646,440.322205 182.297119,424.205322 155.868286,402.515686 134.178650,376.086853 118.061829,345.934265 108.137085,313.216919 104.785950,279.191986 108.137085,245.167023 118.061829,212.449646 134.178650,182.297150 155.868286,155.868256 182.297119,134.178650 212.449646,118.061768 245.167053,108.137085"
       id="polyline1109" /><polyline
       stroke="#000000"
       stroke-opacity="1"
       fill="none"
       stroke-linecap="round"
       stroke-width="2"
       points="241.468689,89.544128 279.192017,85.828735 316.915283,89.544128 353.188904,100.547607 386.618896,118.416321 415.920410,142.463501 439.967712,171.765106 457.836365,205.195068 468.839783,241.468658 472.555298,279.191986 468.839783,316.915283 457.836365,353.188904 439.967712,386.618835 415.920410,415.920471 386.618896,439.967651 353.188904,457.836365 316.915283,468.839844 279.192017,472.555237 241.468689,468.839844 205.195068,457.836365 171.765137,439.967651 142.463501,415.920471 118.416321,386.618835 100.547607,353.188904 89.544128,316.915283 85.828735,279.191986 89.544128,241.468658 100.547607,205.195068 118.416321,171.765106 142.463501,142.463501 171.765137,118.416321 205.195068,100.547607 241.468689,89.544128"
       id="polyline1111" /><polyline
       stroke="#000000"
       stroke-opacity="1"
       fill="none"
       stroke-linecap="round"
       stroke-width="2"
       points="237.770325,70.951172 279.192017,66.871521 320.613647,70.951172 360.443604,83.033447 397.150940,102.653931 429.325195,129.058716 455.729980,161.233063 475.350464,197.940430 487.432739,237.770294 491.512390,279.191986 487.432739,320.613617 475.350464,360.443542 455.729980,397.150879 429.325195,429.325256 397.150940,455.729980 360.443604,475.350464 320.613647,487.432739 279.192017,491.512390 237.770325,487.432739 197.940491,475.350464 161.233093,455.729980 129.058716,429.325256 102.653992,397.150879 83.033447,360.443542 70.951233,320.613617 66.871521,279.191986 70.951233,237.770294 83.033447,197.940430 102.653992,161.233063 129.058716,129.058716 161.233093,102.653931 197.940491,83.033447 237.770325,70.951172"
       id="polyline1113" /><polyline
       stroke="#000000"
       stroke-opacity="1"
       fill="none"
       stroke-linecap="round"
       stroke-width="2"
       points="234.071960,52.358276 279.192017,47.914307 324.312012,52.358276 367.698120,65.519287 407.683044,86.891663 442.729980,115.653992 471.492371,150.701019 492.864685,190.685852 506.025696,234.071930 510.469666,279.191986 506.025696,324.312012 492.864685,367.698120 471.492371,407.682922 442.729980,442.729980 407.683044,471.492310 367.698120,492.864624 324.312012,506.025696 279.192017,510.469604 234.071960,506.025696 190.685852,492.864624 150.700989,471.492310 115.653992,442.729980 86.891663,407.682922 65.519348,367.698120 52.358276,324.312012 47.914368,279.191986 52.358276,234.071930 65.519348,190.685852 86.891663,150.701019 115.653992,115.653992 150.700989,86.891663 190.685852,65.519287 234.071960,52.358276"
       id="polyline1115" /><polyline
       stroke="#000000"
       stroke-opacity="1"
       fill="none"
       stroke-linecap="round"
       stroke-width="2"
       points="230.373596,33.765381 279.192017,28.957153 328.010376,33.765381 374.952698,48.005188 418.215027,71.129333 456.134766,102.249207 487.254639,140.168945 510.378845,183.431274 524.618591,230.373596 529.426819,279.191986 524.618591,328.010345 510.378845,374.952698 487.254639,418.214966 456.134766,456.134705 418.215027,487.254578 374.952698,510.378784 328.010376,524.618591 279.192017,529.426819 230.373596,524.618591 183.431274,510.378784 140.169006,487.254578 102.249268,456.134705 71.129333,418.214966 48.005188,374.952698 33.765320,328.010345 28.957214,279.191986 33.765320,230.373596 48.005188,183.431274 71.129333,140.168945 102.249268,102.249207 140.169006,71.129333 183.431274,48.005188 230.373596,33.765381"
       id="polyline1117" /><polyline
       stroke="#000000"
       stroke-opacity="1"
       fill="none"
       stroke-linecap="round"
       stroke-width="2"
       points="226.675293,15.172485 279.192017,10.000000 331.708740,15.172485 382.207336,30.490967 428.747070,55.367065 469.539551,88.844482 503.016968,129.636902 527.892944,176.176636 543.211548,226.675232 548.384033,279.191986 543.211548,331.708740 527.892944,382.207336 503.016968,428.747009 469.539551,469.539490 428.747070,503.016907 382.207336,527.892944 331.708740,543.211487 279.192017,548.383972 226.675293,543.211487 176.176697,527.892944 129.636963,503.016907 88.844482,469.539490 55.367065,428.747009 30.491028,382.207336 15.172455,331.708740 10.000000,279.191986 15.172455,226.675232 30.491028,176.176636 55.367065,129.636902 88.844482,88.844482 129.636963,55.367065 176.176697,30.490967 226.675293,15.172485"
       id="polyline1119" /></g></svg>
